{"title":"Listopad ep.261 bg audio TVRiP XviD-sufa","uid":6665184,"size":420054756,"categoryP":"video","categoryS":"tv_shows","magnet":"?xt=urn:btih:00251931f786ad5459e8688815c4198369d4da73&amp;dn=Listopad+ep.261+bg+audio+TVRiP+XviD-sufa&amp;tr=udp%3A%2F%2Ftracker.openbittorrent.com%3A80&amp;tr=udp%3A%2F%2Fopen.demonii.com%3A1337&amp;tr=udp%3A%2F%2Ftracker.coppersurfer.tk%3A6969&amp;tr=udp%3A%2F%2Fexodus.desync.com%3A6969","seeders":0,"leechers":1,"uploader":"spyke1998","files":2,"time":1315655545,"description":"Video\nID                               : 0\nFormat                           : MPEG-4 Visual\nFormat profile                   : Advanced Simple@L5\nFormat settings, BVOP            : 2\nFormat settings, QPel            : No\nFormat settings, GMC             : No warppoints\nFormat settings, Matrix          : Default (H.263)\nCodec ID                         : XVID\nCodec ID/Hint                    : XviD\nDuration                         : 42mn 6s\nBit rate                         : 1 192 Kbps\nWidth                            : 640 pixels\nHeight                           : 480 pixels\nDisplay aspect ratio             : 4:3\nFrame rate                       : 25.000 fps\nColor space                      : YUV\nChroma subsampling               : 4:2:0\nBit depth                        : 8 bits\nScan type                        : Progressive\nCompression mode                 : Lossy\nBits/(Pixel*Frame)               : 0.155\nStream size                      : 359 MiB (90%)\nWriting library                  : XviD 1.2.1 (UTC 2008-12-04)\n\nAudio\nID                               : 1\nFormat                           : MPEG Audio\nFormat version                   : Version 1\nFormat profile                   : Layer 3\nMode                             : Joint stereo\nMode extension                   : MS Stereo\nCodec ID                         : 55\nCodec ID/Hint                    : MP3\nDuration                         : 42mn 6s\nBit rate mode                    : Constant\nBit rate                         : 128 Kbps\nChannel(s)                       : 2 channels\nSampling rate                    : 48.0 KHz\nCompression mode                 : Lossy\nStream size                      : 38.6 MiB (10%)\nAlignment                        : Split accross interleaves\nInterleave, duration             : 40 ms (1.00 video frame)\nInterleave, preload duration     : 500 ms\nWriting library                  : LAME3.98\n\nOt: Sufa, za: lovetose ( Zamunda.Net )","torrent":{"xt":"urn:btih:00251931f786ad5459e8688815c4198369d4da73","amp;dn":"Listopad+ep.261+bg+audio+TVRiP+XviD-sufa","amp;tr":["udp%3A%2F%2Ftracker.openbittorrent.com%3A80","udp%3A%2F%2Fopen.demonii.com%3A1337","udp%3A%2F%2Ftracker.coppersurfer.tk%3A6969","udp%3A%2F%2Fexodus.desync.com%3A6969"],"infoHash":"00251931f786ad5459e8688815c4198369d4da73","infoHashBuffer":{"type":"Buffer","data":[0,37,25,49,247,134,173,84,89,232,104,136,21,196,25,131,105,212,218,115]},"announce":[],"urlList":[]}}